<mxfile host="app.diagrams.net" modified="2024-06-22T08:30:18.261Z" agent="Mozilla/5.0 (X11; Linux x86_64) AppleWebKit/537.36 (KHTML, like Gecko) Chrome/126.0.0.0 Safari/537.36" version="24.6.1" etag="hoLZKX3eX5liV_Marolj" type="github">
  <diagram name="Page-1" id="6BMHD1SPw-dI2yk9PpzQ">
    <mxGraphModel>
      <root>
        <mxCell id="0" />
        <mxCell id="1" parent="0" />
      </root>
    </mxGraphModel>
  </diagram>
</mxfile>
